# xmcd
# Track frame offsets:
# 150
# 16831
# 36037
# 55377
# 73024
# 90348
# 107325
# 124071
# 138366
# 156369
# 172482
# 186642
# 210413
# 225190
# 242737
#
# Disc length: 3551 seconds
# Revision: 0
# Processed by: cddbd v1.5.1PL0 Copyright (c) Steve Scherf et al.
# Submitted via: VisiTrax 2.9.10.228 - For more info visit www.synapsa.com
#
DISCID=c80ddd0f
DTITLE=Various Artist - CB60313
DYEAR=1900
DGENRE=Karaoke
TTITLE0=Worley, Darryl - Tennessee River Run
TTITLE1=Cagle, Chris - Chicks Dig It
TTITLE2=Andrews, Jessica - Good Time
TTITLE3=Rutan, Deric - When You Come Around
TTITLE4=Trevino, Rick - In My Dreams
TTITLE5=Messina, Jo Dee - I Wish
TTITLE6=Carson, Jeff - I Can Only Imagine
TTITLE7=Emerick, Scotty - Coast Is Clear, The
TTITLE8=Gearing, Ashley - Can You Hear Me When I Talk To You
TTITLE9=Prather, Colt - Dash, The
TTITLE10=Stuart, Mary - If There Ain't There Oughta Be
TTITLE11=Parton, Dolly - I'm Gone
TTITLE12=Vassar, Phil - Ultimate Love
TTITLE13=Warren Brothers, The - Break The Record
TTITLE14=Vincent, Rhonda - You Can't Take It With You When You Go
EXTD=
EXTT0=
EXTT1=
EXTT2=
EXTT3=
EXTT4=
EXTT5=
EXTT6=
EXTT7=
EXTT8=
EXTT9=
EXTT10=
EXTT11=
EXTT12=
EXTT13=
EXTT14=
PLAYORDER=
